<svg xmlns="http://www.w3.org/2000/svg" width="144" height="144" viewBox="0 0 144 144">
  <defs>
    <linearGradient id="logo-a" x1="50%" x2="50%" y1="0%" y2="100%">
      <stop offset="0%" stop-color="#4EC4D3"/>
      <stop offset="100%" stop-color="#6482C1"/>
    </linearGradient>
  </defs>
  <g fill="url(#logo-a)">
    <path d="M113.566235,27.399119 C106.94997,23.5850371 97.7650387,27.0488462 93.0558154,35.1440405 C88.3465913,43.2392347 83.0924986,59.7798962 89.7476825,63.6328971 C96.4028664,67.4858985 112.398659,57.1333905 117.107883,49.0381959 C121.817106,40.9430017 120.182499,31.2521202 113.566235,27.399119 Z M107.611597,46.3527711 C106.132667,48.9214385 101.073171,52.1906513 98.9715334,50.9841561 C96.8698973,49.7776609 98.5434221,44.5235684 100.022352,41.954901 C101.501282,39.3862337 104.420222,38.2964959 106.521859,39.5029912 C108.623496,40.7094864 109.090526,43.8230228 107.611597,46.3527711 Z M30.4348169,27.399119 C23.8185523,31.213201 22.222865,40.9040827 26.8931694,49.0381959 C31.5634738,57.1723095 47.5981854,67.4858985 54.2533694,63.6328971 C60.908553,59.7798962 55.6155415,43.2781541 50.9452371,35.1440405 C46.2749327,27.009927 37.0900007,23.5850371 30.4348169,27.399119 Z M43.2392347,49.9722568 C41.4878705,50.9841561 37.3235159,48.2598119 36.0781014,46.1581749 C34.8326869,44.0565381 35.2607981,41.4878705 37.0121622,40.5148905 C38.7635264,39.5419106 41.1375977,40.4370521 42.3830123,42.5386891 C43.6284269,44.6403262 44.990599,48.9992769 43.2392347,49.9722568 Z"/>
    <path d="M101.345605,57.3279864 C96.9866546,52.5020051 94.417987,46.2360133 94.6125828,39.7365065 C94.6904213,36.9343238 95.1185326,34.1710604 95.8190782,31.4856354 C94.7682598,32.6142923 93.8341987,33.8597068 93.0558154,35.1829597 C90.8763394,38.9192032 89.3195712,44.44573 85.8168432,46.741963 C76.8654266,43.5895075 67.1356254,43.5895075 58.1842088,46.741963 C54.6425612,44.44573 53.0857932,38.9581224 50.9452371,35.1829597 C50.1668531,33.8597068 49.2327922,32.6142923 48.1819735,31.4856354 C48.8825194,34.1710604 49.3106306,36.9343238 49.3884687,39.7365065 C49.583065,46.2360133 47.0143976,52.5020051 42.6554466,57.3279864 C34.287818,66.6296757 30.3958977,79.1227404 30.3958977,88.3076724 C30.3958977,104.926172 49.0381959,118.353297 72.0005263,118.353297 C94.9628556,118.353297 113.605155,104.887253 113.605155,88.3076724 C113.605155,79.0838208 109.713234,66.6296757 101.345605,57.3279864 Z M42.8500429,101.073171 C42.5386891,101.61804 41.8381436,101.773716 41.2932745,101.462363 C35.3775557,97.8428772 36.0781014,91.6158046 37.2456775,88.8136222 C37.4791927,88.2298339 38.1797384,87.9573996 38.7246072,88.1909143 C39.3083953,88.4244298 39.5808296,89.1249754 39.3473143,89.7087636 C39.2305569,89.9811979 36.8175663,96.0525936 42.4608507,99.5164027 C43.0057194,99.8277559 43.1613963,100.528302 42.8500429,101.073171 Z M52.7355204,85.9725202 C50.5949643,85.9725202 48.8825194,83.2092566 48.8825194,79.823286 C48.8825194,76.4373154 50.5949643,73.6740518 52.7355204,73.6740518 C54.8760765,73.6740518 56.5885214,76.4373154 56.5885214,79.823286 C56.5885214,83.2092566 54.8760765,85.9725202 52.7355204,85.9725202 Z M72.0005263,106.210506 C68.3032015,106.210506 65.345342,104.420222 65.345342,102.240747 C65.345342,100.061271 68.342121,98.2709878 72.0005263,98.2709878 C75.6589313,98.2709878 78.6557095,100.061271 78.6557095,102.240747 C78.6557095,104.420222 75.6978502,106.171587 72.0005263,106.171587 L72.0005263,106.210506 Z M91.2655318,85.9725202 C89.1249754,85.9725202 87.4125302,83.2092566 87.4125302,79.823286 C87.4125302,76.4373154 89.1249754,73.6740518 91.2655318,73.6740518 C93.4060882,73.6740518 95.1185326,76.4373154 95.1185326,79.823286 C95.1185326,83.2092566 93.4060882,85.9725202 91.2655318,85.9725202 Z M103.797515,101.462363 C103.252646,101.812635 102.552101,101.61804 102.240747,101.073171 C101.890474,100.528302 102.08507,99.8277559 102.591019,99.5164027 C108.273223,96.0525936 105.821314,89.9811979 105.704556,89.7087636 C105.471041,89.1249754 105.743475,88.4633494 106.288344,88.1909143 C106.872132,87.9573996 107.533758,88.2298339 107.806193,88.8136222 C109.012688,91.576885 109.713234,97.8428772 103.797515,101.462363 Z"/>
    <path d="M136.250947,144 L7.7490535,144 C3.46565712,144 0,140.534343 0,136.250947 L0,7.74905357 C0,3.46565712 3.46565712,0 7.7490535,0 L136.250947,0 C140.534343,0 144,3.46565712 144,7.74905357 L144,136.289886 C143.96106,140.573283 140.534343,144 136.250947,144 Z M15.2349553,11.4872904 C13.1707718,11.4872904 11.485022,13.1730402 11.485022,15.2372237 L11.485022,128.801716 C11.485022,130.8659 13.1707718,132.551649 15.2349553,132.551649 L128.765045,132.551649 C130.829228,132.551649 132.514978,130.8659 132.514978,128.801716 L132.514978,15.2372237 C132.514978,13.1730402 130.829228,11.4872904 128.765045,11.4872904 C128.765045,11.4872904 15.2349553,11.4872904 15.2349553,11.4872904 Z" opacity=".4"/>
  </g>
</svg>
